<?xml version="1.0" encoding="UTF-8"?>
<svg id="Capa_1" xmlns="http://www.w3.org/2000/svg" version="1.1" xmlns:xlink="http://www.w3.org/1999/xlink" viewBox="0 0 7301.57 2133">
  <!-- Generator: Adobe Illustrator 29.5.0, SVG Export Plug-In . SVG Version: 2.1.0 Build 137)  -->
  <defs>
    <style>
      .st0 {
        fill: #c98214;
      }

      .st1 {
        fill: #fcfcfc;
      }

      .st2 {
        fill: none;
      }

      .st3 {
        display: none;
      }

      .st4 {
        clip-path: url(#clippath);
      }
    </style>
    <clipPath id="clippath">
      <rect class="st2" x="1906.14" y="-936.8" width="3492.12" height="2743.06"/>
    </clipPath>
  </defs>
  <g id="Isologo_completo">
    <g id="Isologo">
      <polygon points="1425.2 1078.74 333.95 177.13 134.56 177.13 134.56 1366.09 351.97 1366.09 351.97 456.9 1443.15 1366.09 1642.62 1366.09 1642.62 177.13 1425.2 177.13 1425.2 1078.74"/>
      <polygon points="2171.64 855.07 3104.32 855.07 3226.26 741.58 3139.22 664.92 2171.64 664.92 2171.64 367.28 2800.02 367.28 2585.37 177.13 1954.24 177.13 1954.24 1366.09 2540.43 1366.09 2749.59 1175.94 2171.64 1175.94 2171.64 855.07"/>
      <path d="M5252.77,786.12c0,80.61-2.92,148.15-8.67,200.76-5.4,49.61-15.37,89.15-29.62,117.53-12.81,25.55-30.43,43.98-53.88,56.33-25.85,13.61-60.71,22.7-103.63,27.01-46.54,4.69-105.1,7.07-174.03,7.07h-267.74c-68.45,0-126.9-2.38-173.7-7.07-43.15-4.32-78.13-13.4-103.95-27-23.45-12.35-41.09-30.77-53.91-56.34-14.25-28.37-24.21-67.9-29.61-117.52-5.75-52.69-8.67-120.24-8.67-200.76V177.13h-89.37l-616.68,563.52s614.91,540.64,618.56,543.88c44.27,39.37,103.38,66.88,175.9,81.85,73.73,15.21,168.42,22.93,281.42,22.93h267.74c113,0,207.68-7.72,281.43-22.93,78.47-16.2,141.21-47.08,186.5-91.79,45.21-44.63,76.99-108.48,94.47-189.75,16.48-76.74,24.84-177.24,24.84-298.72V177.12h-217.42v609h.02Z"/>
      <path d="M7150.78,848.59c-12.2-47.53-37.41-85.99-74.98-114.32-36.08-27.19-86.99-46.02-155.65-57.58-63.53-10.68-148.98-16.84-254-18.31l-440.88-5.81c-79.39-.94-142.72-3.69-188.27-8.17-51.6-5.07-77.01-14.14-89.23-20.87-13.47-7.41-21.49-17.35-25.26-31.29-5.55-20.51-8.35-49.07-8.35-84.88,0-42.23,3.95-75.14,11.72-97.81,5.78-16.85,16.65-28.34,34.23-36.17,22.83-10.18,58.85-16.92,107.03-19.99,52.03-3.32,122.5-5,209.46-5h309.17c71.81,0,132.76.48,181.18,1.44,43.73.88,78.2,6.46,102.44,16.63,19.1,8.01,32.71,23.31,41.62,46.76,10.94,28.85,16.48,73.95,16.48,134.08v37h217.42v-37c0-88.72-9.04-157.29-27.62-209.62-19.95-56.19-53.99-98.48-101.2-125.7-44.06-25.38-103.03-41.7-175.27-48.48-68.03-6.37-153.84-9.6-255.06-9.6h-316.57c-112.16,0-205.21,4.87-276.58,14.5-76.01,10.24-133.93,27.97-177.08,54.2-45.59,27.71-77.52,66.7-94.91,115.86-15.87,44.84-23.9,101.68-23.9,168.93,0,61.07,5.79,113.15,17.19,154.78,12.81,46.81,38.78,84.7,77.17,112.66,36.67,26.72,87.61,45.43,155.73,57.18,63.3,10.94,147.69,17.23,250.8,18.71l411.14,5.81c87.15,1.43,156.63,3.97,206.48,7.52,56.79,4.06,84.8,12.8,98.28,19.41,14.66,7.21,23.03,16.93,27.11,31.51,5.98,21.4,9.02,52.3,9.02,91.82,0,45.26-3.28,81.7-9.71,108.31-4.94,20.39-14.97,34.82-31.57,45.4-13.46,8.58-41.29,20.09-97.5,26.18-49.63,5.39-118.65,8.12-205.17,8.12h-338.75c-77.88,0-142.66-1.56-192.54-4.64-44.88-2.76-79.34-10.87-102.46-24.07-19.96-11.41-33.82-30.64-42.4-58.83-10.24-33.64-15.43-83.32-15.43-147.65v-37h-217.41v37c0,91.98,9.34,164.19,28.56,220.75,20.4,60.07,54.93,106.21,102.62,137.13,45.3,29.38,105.79,49.05,179.77,58.45,69.82,8.87,157.06,13.37,259.27,13.37h346.14c112.58,0,205.09-6.05,274.94-17.97,74.71-12.75,131.06-33.76,172.29-64.24,42.59-31.49,71.68-73.88,86.49-125.96,13.44-47.29,20.24-105.96,20.24-174.35,0-62.73-5.48-115.95-16.3-158.2h.06Z"/>
      <polygon points="3380.17 601.01 2899.47 177.13 3848.86 177.13 3380.17 601.01"/>
      <polygon class="st0" points="3388.24 881.48 3937.8 1366.09 2852.39 1366.09 3388.24 881.48"/>
    </g>
    <g id="Eslogan">
      <path d="M2301.89,1973.87l149.11-250.87h42.61l149.11,250.87h-37.28l-31.95-57.49h-202.36l-31.95,57.49h-37.29ZM2387.09,1890.25h170.41l-85.21-146.34-85.21,146.34h.01Z"/>
      <path d="M2694.86,1973.87v-250.87h31.95v224.73h202.36v26.13h-234.32.01Z"/>
      <path d="M2981.32,1973.87v-250.87h31.95v224.73h202.36v26.13h-234.32.01Z"/>
      <path d="M3374.18,1973.87v-250.87h31.95v250.87h-31.95Z"/>
      <path d="M3479.58,1973.87v-250.87h33.28l256.78,212.16h.34v-212.16h31.95v250.87h-33.28l-256.78-213.95h-.34v213.95h-31.95Z"/>
      <path d="M4094.77,1979.1c-24.96,0-45.49-1.66-61.58-4.98s-28.65-9.44-37.69-18.37c-9.05-8.93-15.37-21.77-18.97-38.54-3.6-16.76-5.41-38.6-5.41-65.5v-6.53c0-22.21,1.11-40.85,3.33-55.94,2.22-15.08,6.05-27.36,11.48-36.83s12.84-16.71,22.21-21.72c9.37-5.01,21.16-8.41,35.36-10.21,14.2-1.8,31.29-2.7,51.26-2.7h67.07c19.97,0,37.05.9,51.26,2.7,14.2,1.8,25.99,5.2,35.36,10.21s16.78,12.25,22.21,21.72,9.27,21.75,11.48,36.83c2.22,15.09,3.33,33.73,3.33,55.94v6.53c0,26.9-1.8,48.72-5.4,65.5-3.6,16.77-9.93,29.62-18.97,38.54-9.05,8.93-21.61,15.06-37.69,18.37-16.09,3.32-36.62,4.98-61.58,4.98h-67.08.02ZM4094.77,1951.99h67.07c15.87,0,29.24-.54,40.1-1.64,10.88-1.09,19.72-3.43,26.54-7.02s12.03-9.04,15.64-16.33c3.6-7.29,6.08-17.04,7.41-29.24s1.99-27.54,1.99-46.06v-6.53c0-19.16-.66-34.95-1.99-47.37s-3.81-22.21-7.41-29.4-8.82-12.44-15.64-15.76c-6.82-3.32-15.67-5.44-26.54-6.37-10.88-.92-24.25-1.39-40.1-1.39h-67.07c-15.87,0-29.24.46-40.1,1.39-10.88.92-19.72,3.05-26.54,6.37-6.82,3.32-12.04,8.57-15.64,15.76s-6.08,16.98-7.41,29.4c-1.33,12.41-1.99,28.21-1.99,47.37v6.53c0,18.52.66,33.86,1.99,46.06s3.8,21.94,7.41,29.24c3.6,7.29,8.82,12.74,15.64,16.33s15.67,5.93,26.54,7.02c10.88,1.09,24.24,1.64,40.1,1.64Z"/>
      <path d="M4348.29,1973.87v-250.87h33.28l256.78,212.16h.34v-212.16h31.95v250.87h-33.28l-256.78-213.95h-.34v213.95h-31.95Z"/>
      <path d="M4744.09,1973.87v-250.87h250.95v26.13h-219.01v83.63h209.85v26.13h-209.85v88.85h223.66v26.13h-255.62.02Z"/>
    </g>
  </g>
  <g id="Eslogan1" class="st3">
    <path class="st1" d="M995.82,1029.22l293.64-503.38h83.9l293.64,503.38h-73.41l-62.92-115.36h-398.52l-62.92,115.36h-73.41.02-.02ZM1163.61,861.43h335.59l-167.79-293.64-167.79,293.64h0Z"/>
    <path class="st1" d="M1769.69,1029.22v-503.38h62.92v450.95h398.52v52.43h-461.44Z"/>
    <path class="st1" d="M2333.82,1029.22v-503.38h62.92v450.95h398.52v52.43h-461.44Z"/>
    <path class="st1" d="M3107.47,1029.22v-503.38h62.92v503.38h-62.92Z"/>
    <path class="st1" d="M3315.04,1029.22v-503.38h65.54l505.68,425.72h.66v-425.72h62.92v503.38h-65.54l-505.68-429.32h-.65v429.32h-62.93Z"/>
    <path class="st1" d="M4526.54,1039.71c-49.16,0-89.58-3.33-121.26-10-31.68-6.67-56.42-18.95-74.23-36.87-17.81-17.91-30.27-43.7-37.36-77.34-7.1-33.64-10.65-77.45-10.65-131.42v-13.11c0-44.57,2.18-81.98,6.55-112.25,4.36-30.26,11.91-54.89,22.61-73.91,10.7-19.01,25.29-33.53,43.75-43.59,18.46-10.05,41.67-16.88,69.64-20.48,27.96-3.6,61.61-5.4,100.94-5.4h132.07c39.32,0,72.97,1.8,100.94,5.4s51.18,10.43,69.64,20.48,33.04,24.58,43.75,43.59c10.7,19.01,18.24,43.65,22.61,73.91,4.36,30.27,6.55,67.67,6.55,112.25v13.11c0,53.97-3.55,97.78-10.65,131.42-7.1,33.65-19.56,59.43-37.36,77.34-17.81,17.92-42.55,30.21-74.23,36.87-31.68,6.67-72.09,10-121.26,10h-132.07.04-.02ZM4526.54,985.31h132.07c31.24,0,57.57-1.09,78.98-3.28,21.41-2.18,38.83-6.88,52.27-14.09s23.71-18.13,30.81-32.77c7.1-14.63,11.96-34.19,14.58-58.67,2.62-24.47,3.93-55.28,3.93-92.42v-13.11c0-38.46-1.31-70.13-3.93-95.04s-7.49-44.57-14.58-58.99-17.37-24.96-30.81-31.63-30.86-10.92-52.27-12.78c-21.41-1.85-47.74-2.78-78.98-2.78h-132.07c-31.25,0-57.57.93-78.98,2.78-21.41,1.86-38.83,6.12-52.27,12.78-13.44,6.67-23.71,17.2-30.81,31.63s-11.96,34.08-14.58,58.99-3.93,56.59-3.93,95.04v13.11c0,37.15,1.31,67.95,3.93,92.42s7.49,44.02,14.58,58.67c7.1,14.64,17.37,25.57,30.81,32.77s30.85,11.91,52.27,14.09c21.41,2.19,47.73,3.28,78.98,3.28Z"/>
    <path class="st1" d="M5025.78,1029.22v-503.38h65.54l505.68,425.72h.66v-425.72h62.92v503.38h-65.54l-505.68-429.32h-.66v429.32h-62.92Z"/>
    <path class="st1" d="M5805.22,1029.22v-503.38h494.21v52.43h-431.29v167.8h413.26v52.43h-413.26v178.28h440.46v52.43h-503.38Z"/>
  </g>
  <g id="Distintivo" class="st3">
    <g>
      <path d="M1892.87,2471.71l194.47-333.39h55.56l194.48,333.39h-48.62l-41.67-76.4h-263.94l-41.67,76.4h-48.62.01ZM2004.01,2360.59h222.27l-111.13-194.48-111.13,194.48h-.01Z"/>
      <path d="M2405.42,2471.71v-333.39h41.67v298.67h263.94v34.73h-305.61Z"/>
      <path d="M2779.04,2471.71v-333.39h41.67v298.67h263.94v34.73h-305.61Z"/>
      <path d="M3291.43,2471.71v-333.39h41.67v333.39h-41.67Z"/>
      <path d="M3428.9,2471.71v-333.39h43.41l334.92,281.95h.43v-281.95h41.67v333.39h-43.41l-334.92-284.34h-.43v284.34h-41.67Z"/>
      <path d="M4231.27,2478.66c-32.56,0-59.33-2.21-80.31-6.62s-37.37-12.55-49.16-24.42c-11.79-11.86-20.05-28.94-24.75-51.22s-7.05-51.3-7.05-87.04v-8.68c0-29.52,1.44-54.29,4.34-74.34,2.89-20.04,7.89-36.36,14.98-48.95s16.74-22.21,28.98-28.87c12.22-6.66,27.6-11.17,46.12-13.56s40.81-3.58,66.85-3.58h87.47c26.05,0,48.33,1.19,66.85,3.58s33.89,6.91,46.12,13.56c12.22,6.66,21.89,16.28,28.98,28.87,7.09,12.59,12.08,28.91,14.98,48.95,2.89,20.05,4.34,44.82,4.34,74.34v8.68c0,35.74-2.35,64.75-7.05,87.04s-12.96,39.36-24.75,51.22c-11.79,11.87-28.19,20.01-49.16,24.42-20.98,4.41-47.75,6.62-80.31,6.62h-87.49.02ZM4231.27,2442.63h87.47c20.69,0,38.13-.72,52.31-2.17,14.18-1.44,25.72-4.56,34.62-9.33s15.7-12.01,20.4-21.7c4.7-9.69,7.92-22.65,9.66-38.85,1.73-16.2,2.6-36.61,2.6-61.21v-8.68c0-25.47-.87-46.45-2.6-62.94-1.73-16.49-4.96-29.52-9.66-39.07s-11.5-16.53-20.4-20.94-20.44-7.23-34.62-8.47c-14.18-1.22-31.62-1.85-52.31-1.85h-87.47c-20.69,0-38.13.62-52.31,1.85s-25.72,4.06-34.62,8.47-15.7,11.4-20.4,20.94c-4.7,9.55-7.92,22.57-9.66,39.07s-2.6,37.48-2.6,62.94v8.68c0,24.6.87,45.01,2.6,61.21,1.73,16.21,4.95,29.16,9.66,38.85,4.7,9.7,11.5,16.93,20.4,21.7s20.44,7.89,34.62,9.33,31.62,2.17,52.31,2.17Z"/>
      <path d="M4561.92,2471.71v-333.39h43.41l334.92,281.95h.43v-281.95h41.67v333.39h-43.41l-334.92-284.34h-.43v284.34h-41.67Z"/>
      <path d="M5078.15,2471.71v-333.39h327.32v34.73h-285.64v111.13h273.71v34.73h-273.71v118.07h291.72v34.73h-333.4Z"/>
    </g>
  </g>
  <g id="Eslogan_2" class="st3">
    <g class="st4">
      <g>
        <polygon points="-654.2 1156.02 -3077.7 -884.24 -3520.51 -884.24 -3520.51 1806.26 -3037.68 1806.26 -3037.68 -251.14 -614.34 1806.26 -171.34 1806.26 -171.34 -884.24 -654.2 -884.24 -654.2 1156.02"/>
        <polygon points="1003.55 649.88 3074.86 649.88 3345.66 393.06 3152.36 219.59 1003.55 219.59 1003.55 -453.95 2399.05 -453.95 1922.35 -884.24 520.71 -884.24 520.71 1806.26 1822.56 1806.26 2287.06 1375.97 1003.55 1375.97 1003.55 649.88"/>
        <path d="M7846.23,493.87c0,182.41-6.47,335.25-19.25,454.29-12.01,112.27-34.13,201.73-65.79,265.96-28.46,57.81-67.59,99.52-119.64,127.45-57.4,30.81-134.84,51.36-230.16,61.12-103.36,10.62-233.4,15.99-386.5,15.99h-594.6c-152.03,0-281.81-5.38-385.76-15.99-95.81-9.77-173.49-30.33-230.86-61.1-52.08-27.95-91.24-69.64-119.71-127.5-31.64-64.2-53.76-153.65-65.77-265.92-12.78-119.25-19.25-272.09-19.25-454.29V-884.22h-198.48L4040.92,390.97s1365.64,1223.43,1373.71,1230.74c98.34,89.1,229.59,151.35,390.66,185.23,163.75,34.43,374.03,51.89,625,51.89h594.6c250.94,0,461.22-17.46,625.02-51.89,174.26-36.65,313.61-106.53,414.19-207.71,100.4-101,170.98-245.47,209.8-429.4,36.61-173.65,55.19-401.09,55.19-675.95V-884.22h-482.85V493.88h-.01Z"/>
        <path d="M12061.42,635.23c-27.08-107.55-83.08-194.58-166.54-258.69-80.11-61.53-193.19-104.14-345.69-130.29-141.1-24.17-330.85-38.11-564.09-41.43l-979.12-13.14c-176.3-2.14-316.95-8.35-418.12-18.48-114.6-11.46-171.02-31.99-198.17-47.22-29.9-16.76-47.73-39.26-56.09-70.8-12.31-46.41-18.55-111.03-18.55-192.06,0-95.57,8.76-170.04,26.03-221.33,12.83-38.12,36.96-64.14,76.01-81.86,50.7-23.05,130.69-38.27,237.7-45.25,115.56-7.51,272.04-11.32,465.2-11.32h686.6c159.48,0,294.85,1.1,402.37,3.28,97.12,1.97,173.69,14.63,227.49,37.62,42.42,18.14,72.66,52.75,92.43,105.8,24.29,65.27,36.61,167.36,36.61,303.41V37.2h482.85V-46.53c0-200.77-20.07-355.94-61.32-474.34-44.29-127.15-119.9-222.85-224.73-284.47-97.84-57.45-228.8-94.37-389.24-109.71-151.1-14.41-341.67-21.73-566.45-21.73h-703.03c-249.08,0-455.73,11.04-614.23,32.81-168.8,23.18-297.44,63.29-393.26,122.65-101.25,62.71-172.16,150.93-210.76,262.19-35.23,101.48-53.08,230.09-53.08,382.26,0,138.21,12.85,256.04,38.18,350.24,28.46,105.92,86.14,191.69,171.39,254.93,81.45,60.47,194.57,102.8,345.85,129.4,140.58,24.76,327.98,39,556.99,42.32l913.1,13.14c193.54,3.24,347.83,8.97,458.56,17.03,126.12,9.18,188.34,28.97,218.26,43.94,32.57,16.3,51.14,38.29,60.21,71.29,13.29,48.42,20.03,118.33,20.03,207.8,0,102.4-7.26,184.88-21.57,245.1-10.98,46.14-33.24,78.79-70.11,102.74-29.88,19.43-91.7,45.47-216.53,59.25-110.23,12.21-263.52,18.39-455.64,18.39h-752.3c-172.96,0-316.81-3.54-427.6-10.51-99.66-6.25-176.21-24.57-227.54-54.49-44.32-25.81-75.11-69.34-94.15-133.12-22.73-76.13-34.27-188.54-34.27-334.11v-83.73h-482.83v83.73c0,208.14,20.75,371.55,63.43,499.54,45.31,135.94,121.98,240.34,227.91,310.3,100.6,66.49,234.94,111,399.26,132.28,155.07,20.07,348.8,30.26,575.79,30.26h768.73c250.04,0,455.48-13.68,610.61-40.66,165.9-28.85,291.07-76.41,382.63-145.38,94.58-71.27,159.2-167.16,192.08-285.05,29.83-107.01,44.95-239.76,44.95-394.53,0-141.95-12.18-262.39-36.19-357.98v-.03h-.05Z"/>
        <polygon points="3687.47 74.96 2619.92 -884.24 4728.36 -884.24 3687.47 74.96"/>
        <polygon class="st0" points="3705.39 709.64 4925.9 1806.26 2515.37 1806.26 3705.39 709.64"/>
      </g>
    </g>
  </g>
</svg>